<svg version="1.1" id="Layer_1" xmlns="http://www.w3.org/2000/svg" xmlns:xlink="http://www.w3.org/1999/xlink" x="0px" y="0px"
	 width="46px" height="36px" viewBox="0 0 524 524" enable-background="new 0 0 524 524" xml:space="preserve">
<path fill="#000000" opacity="1.000000" stroke="none" 
	d="
M367.000000,525.000000 
	C244.695724,525.000000 122.891441,525.000000 1.043582,525.000000 
	C1.043582,350.404053 1.043582,175.808090 1.043582,1.106063 
	C175.554245,1.106063 350.108582,1.106063 524.831421,1.106063 
	C524.831421,175.666534 524.831421,350.333252 524.831421,525.000000 
	C472.474762,525.000000 419.987396,525.000000 367.000000,525.000000 
M42.435242,209.041351 
	C42.255405,209.350174 42.075569,209.658997 41.967670,209.967957 
	C41.967670,209.967957 41.967346,209.896027 41.432804,210.042694 
	C41.254101,210.351852 41.075397,210.661011 40.961338,210.976791 
	C40.961338,210.976791 40.944759,210.913956 40.376358,211.080383 
	C39.887352,211.683899 39.398342,212.287415 38.193871,213.267639 
	C38.068321,217.673203 36.115593,223.430939 38.177750,226.217514 
	C43.292629,233.129105 50.241364,238.683578 56.800037,245.173492 
	C56.940281,245.276459 57.080528,245.379440 57.434528,245.835114 
	C57.860210,246.178833 58.285892,246.522568 59.055618,247.516434 
	C59.778362,248.175522 60.501110,248.834610 61.086037,250.142487 
	C61.483154,250.667816 61.880268,251.193161 62.228722,251.678543 
	C62.228722,251.678543 62.170887,251.618088 62.699604,252.159760 
	C63.089821,252.457977 63.480042,252.756180 64.125397,253.682007 
	C76.067314,265.485077 88.009232,277.288147 99.970703,289.028442 
	C99.970703,289.028442 99.907822,289.047607 100.113068,289.666077 
	C101.393822,290.808197 102.674583,291.950348 103.970253,293.029480 
	C103.970253,293.029480 103.907158,293.044098 104.120483,293.670685 
	C105.730934,295.144531 107.341393,296.618408 108.971901,298.029266 
	C108.971901,298.029266 108.909134,298.050110 109.132401,298.687500 
	C112.737740,302.155151 116.343071,305.622772 119.985909,309.019226 
	C119.985909,309.019226 119.921135,309.066925 120.054543,309.587433 
	C120.353653,309.766846 120.652763,309.946259 121.183945,310.749420 
	C134.437927,323.865417 147.691895,336.981445 160.949799,350.024048 
	C160.949799,350.024048 160.876389,350.020660 161.042923,350.558014 
	C161.354156,350.747192 161.665405,350.936340 161.974243,351.046295 
	C161.974243,351.046295 161.895081,351.049255 162.118835,351.658691 
	C162.523254,351.694763 162.927689,351.730865 163.807938,352.208344 
	C165.848938,354.145172 167.889938,356.081970 170.182846,358.651154 
	C174.904419,362.700714 179.415833,367.032288 184.391769,370.740540 
	C194.429337,378.220917 205.205307,384.451447 217.626099,388.867401 
	C227.566956,393.318085 238.023438,395.521088 249.274033,396.831238 
	C257.069977,396.895233 264.866150,397.012115 272.661652,396.976898 
	C274.153961,396.970154 275.643555,396.364563 277.580719,395.984802 
	C277.580719,395.984802 278.003967,395.834534 278.789795,395.993988 
	C279.854736,395.958405 280.919678,395.922821 282.703735,396.031799 
	C283.802185,395.637054 284.900665,395.242279 286.751343,395.005493 
	C287.516907,394.975159 288.282440,394.944824 289.697052,394.909973 
	C289.980865,394.582397 290.264679,394.254791 290.452454,393.883270 
	C290.452454,393.883270 290.407349,393.978760 291.240509,394.021820 
	C292.192596,393.714661 293.144684,393.407471 294.921448,393.028870 
	C299.403198,391.623077 303.884918,390.217285 308.967346,388.473999 
	C310.018097,388.111877 311.088684,387.798431 312.116669,387.380371 
	C328.952881,380.533264 343.884033,370.806763 357.039642,358.500641 
	C365.990234,367.184845 375.002106,375.807068 383.868866,384.576019 
	C389.373383,390.019775 393.812866,397.297882 404.065369,394.907257 
	C407.074829,392.287354 410.084290,389.667450 413.030579,387.032043 
	C413.030579,387.032043 413.045197,387.095428 413.680328,386.868378 
	C416.151276,384.261719 418.622192,381.655060 421.026306,379.039612 
	C421.026306,379.039612 421.027557,379.107025 421.564331,378.959259 
	C421.744751,378.649261 421.925140,378.339233 422.039459,378.025604 
	C422.039459,378.025604 422.050903,378.090759 422.688416,377.867767 
	C427.489594,372.928558 432.290741,367.989380 437.026062,363.039825 
	C437.026062,363.039825 437.028748,363.106415 437.565277,362.958496 
	C437.745453,362.648438 437.925629,362.338379 438.039276,362.025574 
	C438.039276,362.025574 438.049744,362.091339 438.687408,361.868347 
	C443.489166,356.928772 448.290924,351.989197 453.026337,347.040070 
	C453.026337,347.040070 453.028198,347.107086 453.565125,346.959320 
	C453.745575,346.649139 453.926025,346.338959 454.039886,346.026093 
	C454.039886,346.026093 454.050476,346.091858 454.688599,345.869904 
	C464.924683,335.623383 475.193359,325.409027 485.359406,315.093475 
	C486.783844,313.648102 487.704681,311.706451 488.989685,309.098541 
	C488.315826,305.214386 488.601990,300.759857 486.720673,297.593048 
	C484.462769,293.792358 480.357574,291.089111 477.026733,287.973969 
	C477.026733,287.973969 477.090179,287.948700 476.864594,287.312469 
	C473.260468,283.844757 469.656311,280.377075 466.027191,276.972870 
	C466.027191,276.972870 466.090607,276.947662 465.867249,276.310577 
	C461.596832,272.177795 457.326385,268.045044 453.021515,263.978210 
	C453.021515,263.978210 453.087036,263.942963 452.868286,263.304962 
	C449.262756,259.840332 445.657227,256.375671 442.025269,252.974533 
	C442.025269,252.974533 442.088654,252.947769 441.869019,252.309372 
	C436.597168,247.176422 431.325348,242.043472 426.024078,236.975250 
	C426.024078,236.975250 426.088226,236.944550 425.888428,236.335251 
	C424.632538,235.207108 423.376617,234.078964 421.873962,232.320602 
	C418.933319,229.516922 415.992676,226.713242 413.027283,223.972931 
	C413.027283,223.972931 413.090668,223.948181 412.867676,223.310913 
	C409.260834,219.843277 405.653992,216.375656 402.030243,212.970856 
	C402.030243,212.970856 402.093231,212.954498 401.878845,212.328491 
	C400.268982,210.854874 398.659088,209.381271 397.028503,207.970749 
	C397.028503,207.970749 397.091431,207.949539 396.867615,207.312546 
	C393.595520,204.177780 390.323395,201.042999 387.040649,197.974030 
	C387.040649,197.974030 387.107269,197.971542 386.957245,197.435516 
	C386.647339,197.254486 386.337402,197.073456 386.027527,196.961105 
	C386.027527,196.961105 386.095886,196.954819 385.886322,196.337738 
	C384.607849,195.194992 383.329346,194.052231 382.038940,192.974304 
	C382.038940,192.974304 382.104706,192.969879 381.958557,192.433762 
	C381.648834,192.254242 381.339111,192.074722 381.025787,191.961426 
	C381.025787,191.961426 381.091248,191.950714 380.881226,191.334641 
	C379.602997,190.192078 378.324738,189.049530 377.011017,187.978714 
	C377.011017,187.978714 377.074371,187.929794 376.943329,187.412277 
	C376.646942,187.232330 376.350586,187.052383 375.817963,186.250244 
	C372.230927,182.801346 368.643921,179.352448 365.053131,175.975830 
	C365.053131,175.975830 365.125427,175.978989 364.955963,175.440918 
	C364.643738,175.250870 364.331543,175.060806 364.022156,174.954483 
	C364.022156,174.954483 364.105865,174.951141 363.871674,174.325058 
	C363.230652,174.180115 362.589600,174.035172 361.731354,173.279800 
	C359.828735,171.512650 357.926147,169.745483 355.785675,167.340057 
	C350.899048,163.241791 346.197021,158.895325 341.088074,155.096008 
	C329.832489,146.725662 317.300110,140.715988 303.831146,135.287506 
	C294.928650,133.511856 286.026154,131.736206 276.719849,129.164185 
	C268.929108,129.101639 261.138092,128.986572 253.347809,129.022537 
	C251.857697,129.029419 250.370331,129.631439 248.246933,130.000427 
	C247.829010,130.054764 247.411087,130.109085 246.246735,130.013977 
	C245.144272,130.326157 244.041824,130.638321 242.213821,131.285339 
	C230.781570,134.730774 219.038589,137.398605 207.993362,141.812515 
	C193.176880,147.733505 180.549072,157.429611 168.262039,167.848831 
	C163.097198,163.056946 157.932343,158.265060 152.882599,152.984726 
	C152.368820,152.373718 151.855042,151.762695 151.000763,150.559708 
	C149.294159,148.899246 147.587555,147.238785 145.978821,144.855576 
	C145.666992,144.540253 145.355148,144.224945 145.024475,143.973221 
	C145.024475,143.973221 145.085709,143.947723 144.869873,143.307526 
	C142.051971,140.505875 139.070465,137.848068 136.452682,134.870483 
	C131.982346,129.785736 126.593201,130.404083 120.254280,131.985565 
	C117.805542,134.306976 115.356796,136.628387 112.971008,138.970627 
	C112.971008,138.970627 112.950478,138.907578 112.312767,139.131012 
	C104.177971,147.404449 96.043182,155.677887 87.971252,163.971268 
	C87.971252,163.971268 87.951256,163.908432 87.313881,164.132584 
	C81.825951,169.629105 76.284027,175.073227 70.875534,180.646805 
	C68.572464,183.020187 66.548485,185.664383 63.986664,187.714981 
	C63.745861,188.275482 63.505062,188.835983 62.488155,189.073395 
	C61.959949,189.702209 61.431747,190.331024 60.970573,190.965240 
	C60.970573,190.965240 60.965492,190.898178 60.430397,191.037964 
	C60.253292,191.346527 60.076191,191.655075 59.967319,191.967255 
	C59.967319,191.967255 59.963764,191.899017 59.428543,192.039124 
	C59.251469,192.348007 59.074398,192.656906 58.967953,192.966858 
	C58.967953,192.966858 58.967808,192.896225 58.433056,193.041962 
	C58.254025,193.350891 58.074989,193.659821 57.980133,193.973862 
	C57.980133,193.973862 57.984921,193.889664 57.289471,194.156693 
	C57.293266,194.689774 57.297062,195.222855 57.562885,195.697678 
	C57.562885,195.697678 57.549480,195.428787 57.549480,195.428787 
	C57.549480,195.428787 57.282925,195.396088 56.502316,195.068604 
	C55.968544,195.700333 55.434769,196.332062 54.971451,196.965271 
	C54.971451,196.965271 54.971375,196.894806 54.435764,197.043060 
	C54.255402,197.352539 54.075039,197.662018 53.981956,197.975845 
	C53.981956,197.975845 53.986015,197.888565 53.375523,198.086380 
	C53.097530,198.411530 52.819542,198.736679 52.146420,199.236679 
	C51.784882,199.671555 51.423344,200.106415 50.563248,200.945602 
	C50.338902,201.291183 50.114552,201.636749 49.971397,201.978241 
	C49.971397,201.978241 49.966923,201.897064 49.431679,202.040543 
	C49.253296,202.349594 49.074913,202.658646 48.962048,202.972809 
	C48.962048,202.972809 48.949665,202.908264 48.411446,203.051895 
	C48.148315,203.518600 47.885185,203.985321 47.456352,204.456329 
	C47.456352,204.456329 47.452873,204.622040 46.897476,204.688248 
	C46.567791,205.109131 46.238106,205.530014 45.973560,205.962204 
	C45.973560,205.962204 45.969719,205.896210 45.435150,206.042603 
	C45.255619,206.351318 45.076088,206.660049 44.967461,206.968582 
	C44.967461,206.968582 44.966743,206.897675 44.432087,207.038925 
	C44.254311,207.347214 44.076534,207.655518 43.967319,207.967056 
	C43.967319,207.967056 43.964279,207.898483 43.428955,208.040909 
	C43.251198,208.350204 43.073444,208.659485 42.970119,208.969330 
	C42.970119,208.969330 42.970264,208.894897 42.435242,209.041351 
z"/>
<path fill="#0149FE" opacity="1.000000" stroke="none" 
	d="
M290.407349,393.978760 
	C290.407349,393.978760 290.452454,393.883270 290.287567,393.549683 
	C289.846436,393.209320 289.570221,393.202606 288.877502,393.206238 
	C287.663177,393.438538 286.865326,393.660492 285.767120,393.820953 
	C283.838898,394.083313 282.211029,394.407196 280.259155,394.671692 
	C279.293915,394.732849 278.652649,394.853455 277.768494,394.899567 
	C276.720734,394.999329 275.915955,395.173553 274.692627,395.301270 
	C267.074066,395.350342 259.874023,395.445923 252.369446,395.371277 
	C240.446152,392.909088 228.827393,390.617065 217.208618,388.325043 
	C205.205307,384.451447 194.429337,378.220917 184.391769,370.740540 
	C179.415833,367.032288 174.904419,362.700714 170.116287,357.988770 
	C170.775085,356.251923 171.350510,355.028137 172.248856,354.125916 
	C181.762299,344.571381 191.333969,335.074829 200.875610,325.548309 
	C208.249969,318.185638 208.299240,310.858704 201.001312,303.554993 
	C180.998779,283.536621 161.042007,263.471680 140.915466,243.578644 
	C137.180695,239.887192 134.422913,236.068726 134.579956,230.260315 
	C138.763794,212.621353 146.436172,197.064987 157.159958,182.992599 
	C160.963516,178.001328 164.929169,173.133591 168.820831,168.209473 
	C180.549072,157.429611 193.176880,147.733505 207.993362,141.812515 
	C219.038589,137.398605 230.781570,134.730774 242.824402,131.158508 
	C243.602386,131.032928 243.769806,131.034180 244.252869,131.217667 
	C246.964813,131.089218 249.361115,130.778534 252.172150,130.547424 
	C259.798645,130.589279 267.010406,130.551529 274.575195,130.682098 
	C280.322815,131.683105 285.731964,132.432861 291.107513,133.374420 
	C295.464905,134.137665 299.781921,135.131454 304.116852,136.022980 
	C317.300110,140.715988 329.832489,146.725662 341.088074,155.096008 
	C346.197021,158.895325 350.899048,163.241791 355.869537,168.017853 
	C355.008911,170.212509 354.316284,171.984375 353.079742,173.205551 
	C343.967987,182.204132 334.694183,191.038620 325.577606,200.032440 
	C317.658478,207.844955 317.652191,215.087540 325.397827,222.840546 
	C345.278076,242.739670 365.104279,262.693756 385.124542,282.451111 
	C388.858856,286.136353 391.700500,289.856995 391.368530,295.673218 
	C390.919983,296.786926 390.406799,297.500641 390.247742,298.286102 
	C387.538177,311.664337 382.086426,323.928192 374.368256,335.062897 
	C368.897217,342.955750 362.603516,350.278320 356.677032,357.855438 
	C343.884033,370.806763 328.952881,380.533264 312.116669,387.380371 
	C311.088684,387.798431 310.018097,388.111877 308.291992,388.629486 
	C303.078278,389.900909 298.539948,391.016876 293.737732,392.103821 
	C292.500397,392.406158 291.526978,392.737457 290.300201,393.261414 
	C290.167023,393.628998 290.287201,393.803864 290.407349,393.978760 
z"/>
<path fill="#22DEFE" opacity="1.000000" stroke="none" 
	d="
M356.858337,358.178040 
	C362.603516,350.278320 368.897217,342.955750 374.368256,335.062897 
	C382.086426,323.928192 387.538177,311.664337 390.247742,298.286102 
	C390.406799,297.500641 390.919983,296.786926 391.574097,295.364502 
	C392.102478,294.063110 392.398712,293.452820 392.537109,292.808624 
	C399.830841,258.860229 395.176666,226.719421 378.043396,196.427872 
	C376.599854,193.875702 375.719452,191.005020 374.932831,188.259857 
	C375.525604,188.239395 375.762970,188.241394 376.299927,188.271362 
	C376.757751,188.176147 376.916077,188.052979 377.074371,187.929794 
	C377.074371,187.929794 377.011017,187.978714 376.909546,188.302414 
	C378.235809,189.734314 379.663544,190.842514 381.091248,191.950714 
	C381.091248,191.950714 381.025787,191.961426 380.992310,192.263092 
	C381.340820,192.699799 381.722748,192.834839 382.104706,192.969879 
	C382.104706,192.969879 382.038940,192.974304 381.908386,193.295624 
	C383.217163,194.729568 384.656525,195.842194 386.095886,196.954819 
	C386.095886,196.954819 386.027527,196.961105 386.003021,197.257233 
	C386.354767,197.692764 386.731018,197.832153 387.107269,197.971542 
	C387.107269,197.971542 387.040649,197.974030 386.914154,198.287674 
	C390.222229,201.717392 393.656830,204.833481 397.091431,207.949554 
	C397.091431,207.949539 397.028503,207.970749 396.912445,208.292328 
	C398.561981,210.060776 400.327606,211.507645 402.093231,212.954498 
	C402.093231,212.954498 402.030243,212.970856 401.917328,213.287872 
	C405.566498,217.052658 409.328583,220.500412 413.090668,223.948181 
	C413.090668,223.948181 413.027283,223.972931 412.902771,224.286911 
	C415.483398,227.419891 418.188568,230.238907 421.051727,233.363251 
	C422.835876,234.760574 424.462067,235.852554 426.088226,236.944550 
	C426.088226,236.944550 426.024078,236.975250 425.899658,237.285782 
	C429.644226,241.776489 433.428131,246.040863 437.432617,250.086975 
	C438.677368,251.344666 440.519836,252.010803 442.088654,252.947784 
	C442.088654,252.947769 442.025269,252.974533 441.903259,253.286728 
	C445.549866,257.046936 449.318451,260.494965 453.087036,263.942963 
	C453.087036,263.942963 453.021515,263.978210 452.893982,264.288757 
	C457.207825,268.715454 461.649200,272.831543 466.090607,276.947662 
	C466.090607,276.947662 466.027191,276.972870 465.906189,277.287048 
	C469.553528,281.050385 473.321869,284.499542 477.090179,287.948700 
	C477.090179,287.948700 477.026733,287.973969 476.900513,288.287842 
	C477.985901,290.134613 478.968048,291.951355 480.450195,293.149597 
	C485.882263,297.541168 488.633331,302.941833 487.335815,310.272217 
	C477.032959,320.792236 466.944916,331.023590 456.963074,341.357513 
	C455.705872,342.659058 455.007660,344.500519 454.050476,346.091858 
	C454.050476,346.091858 454.039886,346.026093 453.743011,346.001404 
	C453.306824,346.353546 453.167511,346.730316 453.028198,347.107086 
	C453.028198,347.107086 453.026337,347.040070 452.712585,346.921875 
	C447.615784,351.899567 442.832764,356.995453 438.049744,362.091339 
	C438.049744,362.091339 438.039276,362.025574 437.741425,362.000092 
	C437.305298,362.351868 437.167023,362.729126 437.028748,363.106415 
	C437.028748,363.106415 437.026062,363.039825 436.713013,362.918396 
	C431.616943,367.894897 426.833923,372.992828 422.050903,378.090759 
	C422.050903,378.090759 422.039459,378.025604 421.741943,377.997986 
	C421.305481,378.349274 421.166534,378.728149 421.027588,379.107025 
	C421.027557,379.107025 421.026306,379.039612 420.710876,378.924744 
	C417.945374,381.571716 415.495270,384.333557 413.045197,387.095428 
	C413.045197,387.095428 413.030579,387.032043 412.713837,386.922668 
	C409.406952,389.473724 406.416809,392.134125 403.426636,394.794495 
	C393.812866,397.297882 389.373383,390.019775 383.868866,384.576019 
	C375.002106,375.807068 365.990234,367.184845 356.858337,358.178040 
z"/>
<path fill="#22DEFE" opacity="1.000000" stroke="none" 
	d="
M168.541443,168.029144 
	C164.929169,173.133591 160.963516,178.001328 157.159958,182.992599 
	C146.436172,197.064987 138.763794,212.621353 134.377640,230.576691 
	C125.538467,266.813232 130.858063,300.252075 149.145462,331.777466 
	C150.170837,333.545044 150.609512,335.652985 150.995239,337.506470 
	C149.916595,336.768005 149.125977,336.164764 148.417099,335.477234 
	C139.274490,326.609955 130.143555,317.730682 120.715569,308.795013 
	C120.254692,308.846069 120.087914,308.956482 119.921135,309.066925 
	C119.921135,309.066925 119.985909,309.019226 120.097427,308.710144 
	C116.442337,304.950745 112.675743,301.500427 108.909134,298.050110 
	C108.909134,298.050110 108.971901,298.029266 109.080513,297.706848 
	C107.428467,295.937653 105.667816,294.490875 103.907166,293.044098 
	C103.907158,293.044098 103.970253,293.029480 104.074097,292.700439 
	C102.754570,291.263489 101.331200,290.155548 99.907822,289.047607 
	C99.907822,289.047607 99.970703,289.028442 100.082062,288.712799 
	C88.505486,276.574341 76.817551,264.751526 65.006096,252.663971 
	C64.318573,251.873062 63.754566,251.346848 63.063354,250.602005 
	C62.365379,250.086807 61.794617,249.790253 61.223858,249.493713 
	C60.501110,248.834610 59.778362,248.175522 58.774529,247.018097 
	C58.069214,246.173996 57.644997,245.828217 57.220779,245.482437 
	C57.080528,245.379440 56.940281,245.276459 56.565170,244.691757 
	C52.281902,239.912796 48.559162,235.235703 44.102386,231.414825 
	C38.579388,226.679901 37.460854,221.153198 39.458649,214.322296 
	C40.150356,213.032013 40.547558,211.972992 40.944759,210.913956 
	C40.944759,210.913956 40.961338,210.976791 41.262993,211.004990 
	C41.698883,210.654129 41.833115,210.275085 41.967346,209.896027 
	C41.967346,209.896027 41.967670,209.967957 42.263443,210.003387 
	C42.696232,209.657501 42.833244,209.276199 42.970261,208.894897 
	C42.970264,208.894897 42.970119,208.969330 43.269173,209.002838 
	C43.700241,208.657043 43.832256,208.277771 43.964279,207.898483 
	C43.964279,207.898483 43.967319,207.967056 44.270676,208.013382 
	C44.704937,207.672363 44.835838,207.285019 44.966743,206.897675 
	C44.966743,206.897675 44.967461,206.968582 45.264790,207.001251 
	C45.697987,206.654694 45.833851,206.275452 45.969719,205.896210 
	C45.969719,205.896210 45.973560,205.962204 46.270184,206.072784 
	C46.862160,205.662903 47.157513,205.142471 47.452869,204.622040 
	C47.452873,204.622040 47.456352,204.456329 47.881565,204.519135 
	C48.521072,204.024033 48.735371,203.466156 48.949669,202.908264 
	C48.949665,202.908264 48.962048,202.972809 49.263954,203.005981 
	C49.699551,202.658447 49.833237,202.277756 49.966927,201.897064 
	C49.966923,201.897064 49.971397,201.978241 50.309662,201.952438 
	C50.785885,201.464844 50.923843,201.003067 51.061806,200.541275 
	C51.423344,200.106415 51.784882,199.671555 52.721397,199.154236 
	C53.526257,198.677368 53.756138,198.282974 53.986015,197.888565 
	C53.986015,197.888565 53.981956,197.975845 54.268555,197.999390 
	C54.693893,197.646881 54.832634,197.270844 54.971375,196.894806 
	C54.971375,196.894806 54.971451,196.965271 55.335804,197.032471 
	C56.227745,196.531815 56.755337,195.963959 57.282928,195.396088 
	C57.282925,195.396088 57.549480,195.428787 57.549480,195.428787 
	C57.549480,195.428787 57.562885,195.697678 57.726196,195.304291 
	C57.921314,194.570496 57.953114,194.230087 57.984917,193.889664 
	C57.984921,193.889664 57.980133,193.973862 58.270969,194.004868 
	C58.697140,193.655991 58.832474,193.276108 58.967808,192.896225 
	C58.967808,192.896225 58.967953,192.966858 59.270439,193.009552 
	C59.703209,192.667847 59.833488,192.283432 59.963768,191.899017 
	C59.963764,191.899017 59.967319,191.967255 60.271545,192.012741 
	C60.705677,191.671539 60.835583,191.284866 60.965492,190.898178 
	C60.965492,190.898178 60.970573,190.965240 61.336781,191.042953 
	C62.223408,190.545944 62.743832,189.971207 63.264259,189.396484 
	C63.505062,188.835983 63.745861,188.275482 64.568115,187.886597 
	C72.488335,180.895554 79.848618,173.754578 87.124527,166.528625 
	C87.699959,165.957153 87.689461,164.795700 87.951256,163.908432 
	C87.951256,163.908432 87.971252,163.971268 88.287399,164.082077 
	C96.654892,156.385559 104.716667,148.588882 112.721901,140.734558 
	C113.065163,140.397766 112.886177,139.528687 112.950485,138.907578 
	C112.950478,138.907578 112.971008,138.970627 113.284782,139.081757 
	C116.058578,137.103745 118.518600,135.014618 121.376503,132.876480 
	C127.267075,130.817596 131.644608,132.378128 135.690704,136.491104 
	C138.473480,139.319870 141.930206,141.485641 145.085709,143.947723 
	C145.085709,143.947723 145.024475,143.973221 144.982666,144.285980 
	C145.254211,144.925262 145.567581,145.251801 145.880936,145.578339 
	C147.587555,147.238785 149.294159,148.899246 151.247681,151.071930 
	C151.918884,152.213837 152.343185,152.843506 152.767502,153.473175 
	C157.932343,158.265060 163.097198,163.056946 168.541443,168.029144 
z"/>
<path fill="#027EFE" opacity="1.000000" stroke="none" 
	d="
M151.321274,337.602509 
	C150.609512,335.652985 150.170837,333.545044 149.145462,331.777466 
	C130.858063,300.252075 125.538467,266.813232 134.326172,230.966858 
	C134.422913,236.068726 137.180695,239.887192 140.915466,243.578644 
	C161.042007,263.471680 180.998779,283.536621 201.001312,303.554993 
	C208.299240,310.858704 208.249969,318.185638 200.875610,325.548309 
	C191.333969,335.074829 181.762299,344.571381 172.248856,354.125916 
	C171.350510,355.028137 170.775085,356.251923 169.990326,357.672577 
	C167.889938,356.081970 165.848938,354.145172 163.420898,351.664001 
	C162.654266,351.096222 162.274673,351.072723 161.895081,351.049255 
	C161.895081,351.049255 161.974243,351.046295 162.085266,350.705719 
	C161.756332,350.250305 161.316360,350.135498 160.876389,350.020660 
	C160.876389,350.020660 160.949799,350.024048 161.186951,349.756226 
	C158.496368,345.886353 155.568604,342.284302 152.576828,338.384766 
	C152.190369,337.869019 151.867950,337.650726 151.518951,337.513824 
	C151.492386,337.595215 151.321274,337.602509 151.321274,337.602509 
z"/>
<path fill="#027EFE" opacity="1.000000" stroke="none" 
	d="
M374.577454,188.282318 
	C375.719452,191.005020 376.599854,193.875702 378.043396,196.427872 
	C395.176666,226.719421 399.830841,258.860229 392.537109,292.808624 
	C392.398712,293.452820 392.102478,294.063110 391.674286,294.997925 
	C391.700500,289.856995 388.858856,286.136353 385.124542,282.451111 
	C365.104279,262.693756 345.278076,242.739670 325.397827,222.840546 
	C317.652191,215.087540 317.658478,207.844955 325.577606,200.032440 
	C334.694183,191.038620 343.967987,182.204132 353.079742,173.205551 
	C354.316284,171.984375 355.008911,170.212509 355.988464,168.336975 
	C357.926147,169.745483 359.828735,171.512650 361.917755,173.970703 
	C362.771393,174.758118 363.438629,174.854630 364.105865,174.951141 
	C364.105865,174.951141 364.022156,174.954483 363.917572,175.296600 
	C364.250458,175.752151 364.687958,175.865570 365.125427,175.978989 
	C365.125427,175.978989 365.053131,175.975830 364.800018,176.235504 
	C367.890411,180.424225 371.233917,184.353271 374.577454,188.282318 
z"/>
<path fill="#ADF5FE" opacity="1.000000" stroke="none" 
	d="
M152.640854,338.682251 
	C155.568604,342.284302 158.496368,345.886353 161.184998,349.792908 
	C147.691895,336.981445 134.437927,323.865417 121.082626,310.119751 
	C120.990776,309.278198 121.000229,309.066284 121.009674,308.854401 
	C130.143555,317.730682 139.274490,326.609955 148.417099,335.477234 
	C149.125977,336.164764 149.916595,336.768005 150.995239,337.506470 
	C151.321274,337.602509 151.492386,337.595215 151.593628,337.799805 
	C152.010193,338.230316 152.325516,338.456299 152.640854,338.682251 
z"/>
<path fill="#B2F6FE" opacity="1.000000" stroke="none" 
	d="
M454.369537,345.980896 
	C455.007660,344.500519 455.705872,342.659058 456.963074,341.357513 
	C466.944916,331.023590 477.032959,320.792236 487.547974,310.268555 
	C488.291199,310.002563 488.574890,309.998169 488.858582,309.994507 
	C487.704681,311.706451 486.783844,313.648102 485.359406,315.093475 
	C475.193359,325.409027 464.924683,335.623383 454.369537,345.980896 
z"/>
<path fill="#B0F8FE" opacity="1.000000" stroke="none" 
	d="
M65.129623,252.928696 
	C76.817551,264.751526 88.505486,276.574341 100.072281,288.744202 
	C88.009232,277.288147 76.067314,265.485077 64.312744,253.337616 
	C64.709946,252.971725 64.919785,252.950211 65.129623,252.928696 
z"/>
<path fill="#AEF7FE" opacity="1.000000" stroke="none" 
	d="
M39.164143,214.553558 
	C37.460854,221.153198 38.579388,226.679901 44.102386,231.414825 
	C48.559162,235.235703 52.281902,239.912796 56.391869,244.496613 
	C50.241364,238.683578 43.292629,233.129105 38.177750,226.217514 
	C36.115593,223.430939 38.068321,217.673203 38.617661,213.494400 
	C39.082344,213.998627 39.123245,214.276093 39.164143,214.553558 
z"/>
<path fill="#ADC7FD" opacity="1.000000" stroke="none" 
	d="
M217.417358,388.596222 
	C228.827393,390.617065 240.446152,392.909088 251.901123,395.484070 
	C250.780731,395.856171 249.824158,395.945251 248.867569,396.034332 
	C238.023438,395.521088 227.566956,393.318085 217.417358,388.596222 
z"/>
<path fill="#B0F7FF" opacity="1.000000" stroke="none" 
	d="
M112.631622,139.019287 
	C112.886177,139.528687 113.065163,140.397766 112.721901,140.734558 
	C104.716667,148.588882 96.654892,156.385559 88.255966,164.072113 
	C96.043182,155.677887 104.177971,147.404449 112.631622,139.019287 
z"/>
<path fill="#B0F7FF" opacity="1.000000" stroke="none" 
	d="
M87.632568,164.020508 
	C87.689461,164.795700 87.699959,165.957153 87.124527,166.528625 
	C79.848618,173.754578 72.488335,180.895554 64.773621,188.121857 
	C66.548485,185.664383 68.572464,183.020187 70.875534,180.646805 
	C76.284027,175.073227 81.825951,169.629105 87.632568,164.020508 
z"/>
<path fill="#B1CBFE" opacity="1.000000" stroke="none" 
	d="
M303.973999,135.655243 
	C299.781921,135.131454 295.464905,134.137665 291.107513,133.374420 
	C285.731964,132.432861 280.322815,131.683105 275.053101,130.558411 
	C275.826569,130.164429 276.475098,130.062500 277.123657,129.960571 
	C286.026154,131.736206 294.928650,133.511856 303.973999,135.655243 
z"/>
<path fill="#9CF3FD" opacity="1.000000" stroke="none" 
	d="
M144.977783,143.627625 
	C141.930206,141.485641 138.473480,139.319870 135.690704,136.491104 
	C131.644608,132.378128 127.267075,130.817596 121.364540,132.619965 
	C120.954582,132.241211 120.954475,132.069977 120.954361,131.898727 
	C126.593201,130.404083 131.982346,129.785736 136.452682,134.870483 
	C139.070465,137.848068 142.051971,140.505875 144.977783,143.627625 
z"/>
<path fill="#B1F8FE" opacity="1.000000" stroke="none" 
	d="
M488.924133,309.546509 
	C488.574890,309.998169 488.291199,310.002563 487.795349,310.011353 
	C488.633331,302.941833 485.882263,297.541168 480.450195,293.149597 
	C478.968048,291.951355 477.985901,290.134613 476.913300,288.256165 
	C480.357574,291.089111 484.462769,293.792358 486.720673,297.593048 
	C488.601990,300.759857 488.315826,305.214386 488.924133,309.546509 
z"/>
<path fill="#B1F8FE" opacity="1.000000" stroke="none" 
	d="
M441.978821,252.628571 
	C440.519836,252.010803 438.677368,251.344666 437.432617,250.086975 
	C433.428131,246.040863 429.644226,241.776489 425.914368,237.253418 
	C431.325348,242.043472 436.597168,247.176422 441.978821,252.628571 
z"/>
<path fill="#B2F6FE" opacity="1.000000" stroke="none" 
	d="
M438.368591,361.979858 
	C442.832764,356.995453 447.615784,351.899567 452.745728,346.926636 
	C448.290924,351.989197 443.489166,356.928772 438.368591,361.979858 
z"/>
<path fill="#B2F6FE" opacity="1.000000" stroke="none" 
	d="
M422.369659,377.979248 
	C426.833923,372.992828 431.616943,367.894897 436.745941,362.923584 
	C432.290741,367.989380 427.489594,372.928558 422.369659,377.979248 
z"/>
<path fill="#B1F8FE" opacity="1.000000" stroke="none" 
	d="
M465.978943,276.629120 
	C461.649200,272.831543 457.207825,268.715454 452.911194,264.255798 
	C457.326385,268.045044 461.596832,272.177795 465.978943,276.629120 
z"/>
<path fill="#B3F4FF" opacity="1.000000" stroke="none" 
	d="
M374.932800,188.259857 
	C371.233917,184.353271 367.890411,180.424225 364.801880,176.199371 
	C368.643921,179.352448 372.230927,182.801346 375.921448,186.903992 
	C376.016724,187.786316 376.008545,188.014862 376.000366,188.243408 
	C375.762970,188.241394 375.525604,188.239395 374.932800,188.259857 
z"/>
<path fill="#C8DDFE" opacity="1.000000" stroke="none" 
	d="
M249.070801,396.432800 
	C249.824158,395.945251 250.780731,395.856171 252.205627,395.654266 
	C259.874023,395.445923 267.074066,395.350342 274.922302,395.441742 
	C276.091766,395.764221 276.613068,395.899719 277.134399,396.035217 
	C275.643555,396.364563 274.153961,396.970154 272.661652,396.976898 
	C264.866150,397.012115 257.069977,396.895233 249.070801,396.432800 
z"/>
<path fill="#B1F8FE" opacity="1.000000" stroke="none" 
	d="
M452.977661,263.623962 
	C449.318451,260.494965 445.549866,257.046936 441.916504,253.254974 
	C445.657227,256.375671 449.262756,259.840332 452.977661,263.623962 
z"/>
<path fill="#B0F8FE" opacity="1.000000" stroke="none" 
	d="
M109.020767,298.368805 
	C112.675743,301.500427 116.442337,304.950745 120.078674,308.745728 
	C116.343071,305.622772 112.737740,302.155151 109.020767,298.368805 
z"/>
<path fill="#B3F8FE" opacity="1.000000" stroke="none" 
	d="
M412.979187,223.629547 
	C409.328583,220.500412 405.566498,217.052658 401.925781,213.256470 
	C405.653992,216.375656 409.260834,219.843277 412.979187,223.629547 
z"/>
<path fill="#B1F8FE" opacity="1.000000" stroke="none" 
	d="
M476.977386,287.630585 
	C473.321869,284.499542 469.553528,281.050385 465.918701,277.255310 
	C469.656311,280.377075 473.260468,283.844757 476.977386,287.630585 
z"/>
<path fill="#B1CBFE" opacity="1.000000" stroke="none" 
	d="
M294.001587,392.132812 
	C298.539948,391.016876 303.078278,389.900909 307.991638,388.798218 
	C303.884918,390.217285 299.403198,391.623077 294.459564,393.011902 
	C293.997681,392.994934 293.898621,392.889557 293.928864,392.700989 
	C293.959106,392.512390 294.001587,392.132812 294.001587,392.132812 
z"/>
<path fill="#C8DDFE" opacity="1.000000" stroke="none" 
	d="
M276.921753,129.562378 
	C276.475098,130.062500 275.826569,130.164429 274.700073,130.390076 
	C267.010406,130.551529 259.798645,130.589279 251.697327,130.431076 
	C250.165741,130.143051 249.523727,130.050964 248.881699,129.958893 
	C250.370331,129.631439 251.857697,129.029419 253.347809,129.022537 
	C261.138092,128.986572 268.929108,129.101639 276.921753,129.562378 
z"/>
<path fill="#B3F8FE" opacity="1.000000" stroke="none" 
	d="
M396.979523,207.631042 
	C393.656830,204.833481 390.222229,201.717392 386.919495,198.254776 
	C390.323395,201.042999 393.595520,204.177780 396.979523,207.631042 
z"/>
<path fill="#B2F6FE" opacity="1.000000" stroke="none" 
	d="
M403.746033,394.850891 
	C406.416809,392.134125 409.406952,389.473724 412.745422,386.930420 
	C410.084290,389.667450 407.074829,392.287354 403.746033,394.850891 
z"/>
<path fill="#B3F8FE" opacity="1.000000" stroke="none" 
	d="
M420.893738,233.057922 
	C418.188568,230.238907 415.483398,227.419891 412.915131,224.255234 
	C415.992676,226.713242 418.933319,229.516922 421.690521,232.661560 
	C421.302643,233.020996 421.098175,233.039459 420.893738,233.057922 
z"/>
<path fill="#B2F6FE" opacity="1.000000" stroke="none" 
	d="
M413.362762,386.981903 
	C415.495270,384.333557 417.945374,381.571716 420.744263,378.929108 
	C418.622192,381.655060 416.151276,384.261719 413.362762,386.981903 
z"/>
<path fill="#B0F7FF" opacity="1.000000" stroke="none" 
	d="
M120.604324,131.942139 
	C120.954475,132.069977 120.954582,132.241211 120.966660,132.668976 
	C118.518600,135.014618 116.058578,137.103745 113.253304,139.071350 
	C115.356796,136.628387 117.805542,134.306976 120.604324,131.942139 
z"/>
<path fill="#B0F8FE" opacity="1.000000" stroke="none" 
	d="
M104.013824,293.357391 
	C105.667816,294.490875 107.428467,295.937653 109.070488,297.738342 
	C107.341393,296.618408 105.730934,295.144531 104.013824,293.357391 
z"/>
<path fill="#B3F8FE" opacity="1.000000" stroke="none" 
	d="
M401.986023,212.641510 
	C400.327606,211.507645 398.561981,210.060776 396.922791,208.260803 
	C398.659088,209.381271 400.268982,210.854874 401.986023,212.641510 
z"/>
<path fill="#B1F8FE" opacity="1.000000" stroke="none" 
	d="
M421.051727,233.363251 
	C421.098175,233.039459 421.302643,233.020996 421.813904,232.976669 
	C423.376617,234.078964 424.632538,235.207108 425.988342,236.639893 
	C424.462067,235.852554 422.835876,234.760574 421.051727,233.363251 
z"/>
<path fill="#B1CBFE" opacity="1.000000" stroke="none" 
	d="
M248.564316,129.979660 
	C249.523727,130.050964 250.165741,130.143051 251.282593,130.351471 
	C249.361115,130.778534 246.964813,131.089218 244.565918,131.150406 
	C245.373276,130.655060 246.183212,130.409225 246.993164,130.163406 
	C247.411087,130.109085 247.829010,130.054764 248.564316,129.979660 
z"/>
<path fill="#ADC7FD" opacity="1.000000" stroke="none" 
	d="
M280.583191,394.731110 
	C282.211029,394.407196 283.838898,394.083313 285.748535,394.062134 
	C286.030304,394.364868 285.999115,394.847504 285.999115,394.847504 
	C284.900665,395.242279 283.802185,395.637054 282.126221,395.748718 
	C281.226868,395.220825 280.905029,394.975952 280.583191,394.731110 
z"/>
<path fill="#B0F8FE" opacity="1.000000" stroke="none" 
	d="
M100.010445,289.356842 
	C101.331200,290.155548 102.754570,291.263489 104.066643,292.731964 
	C102.674583,291.950348 101.393822,290.808197 100.010445,289.356842 
z"/>
<path fill="#B3F8FE" opacity="1.000000" stroke="none" 
	d="
M385.991089,196.646271 
	C384.656525,195.842194 383.217163,194.729568 381.914337,193.263214 
	C383.329346,194.052231 384.607849,195.194992 385.991089,196.646271 
z"/>
<path fill="#B3F8FE" opacity="1.000000" stroke="none" 
	d="
M380.986237,191.642670 
	C379.663544,190.842514 378.235809,189.734314 376.927307,188.266541 
	C378.324738,189.049530 379.602997,190.192078 380.986237,191.642670 
z"/>
<path fill="#ADC7FD" opacity="1.000000" stroke="none" 
	d="
M277.357544,396.010010 
	C276.613068,395.899719 276.091766,395.764221 275.340790,395.488220 
	C275.915955,395.173553 276.720734,394.999329 277.767456,395.114685 
	C278.009369,395.404297 278.003967,395.834534 278.003967,395.834534 
	C278.003967,395.834534 277.580719,395.984802 277.357544,396.010010 
z"/>
<path fill="#B0F7FF" opacity="1.000000" stroke="none" 
	d="
M39.458649,214.322296 
	C39.123245,214.276093 39.082344,213.998627 38.975391,213.306046 
	C39.398342,212.287415 39.887352,211.683899 40.660561,210.997162 
	C40.547558,211.972992 40.150356,213.032013 39.458649,214.322296 
z"/>
<path fill="#AEF7FE" opacity="1.000000" stroke="none" 
	d="
M65.006104,252.663971 
	C64.919785,252.950211 64.709946,252.971725 64.185181,253.023804 
	C63.480042,252.756180 63.089821,252.457977 62.473160,251.875275 
	C62.246716,251.590805 62.322685,251.621948 62.539665,251.421631 
	C62.901287,251.087753 63.045925,250.954193 63.190563,250.820648 
	C63.754566,251.346848 64.318573,251.873062 65.006104,252.663971 
z"/>
<path fill="#AEF7FE" opacity="1.000000" stroke="none" 
	d="
M61.154945,249.818100 
	C61.794617,249.790253 62.365379,250.086807 63.063354,250.602005 
	C63.045925,250.954193 62.901287,251.087753 62.553543,251.458740 
	C62.350437,251.696136 62.277386,251.718491 62.277386,251.718491 
	C61.880268,251.193161 61.483154,250.667816 61.154945,249.818100 
z"/>
<path fill="#B1CBFE" opacity="1.000000" stroke="none" 
	d="
M278.396881,395.914246 
	C278.003967,395.834534 278.009369,395.404297 278.010376,395.189148 
	C278.652649,394.853455 279.293915,394.732849 280.259155,394.671692 
	C280.905029,394.975952 281.226868,395.220825 281.766663,395.676453 
	C280.919678,395.922821 279.854736,395.958405 278.396881,395.914246 
z"/>
<path fill="#C8DDFE" opacity="1.000000" stroke="none" 
	d="
M246.619949,130.088684 
	C246.183212,130.409225 245.373276,130.655060 244.250275,130.968155 
	C243.769806,131.034180 243.602386,131.032928 243.187164,130.991089 
	C244.041824,130.638321 245.144272,130.326157 246.619949,130.088684 
z"/>
<path fill="#9CF3FD" opacity="1.000000" stroke="none" 
	d="
M152.825043,153.228943 
	C152.343185,152.843506 151.918884,152.213837 151.417923,151.367920 
	C151.855042,151.762695 152.368820,152.373718 152.825043,153.228943 
z"/>
<path fill="#B1CBFE" opacity="1.000000" stroke="none" 
	d="
M290.823914,394.000305 
	C290.287201,393.803864 290.167023,393.628998 290.720459,393.247864 
	C292.228912,392.990936 293.063782,392.940247 293.898621,392.889557 
	C293.898621,392.889557 293.997681,392.994934 294.047241,393.047607 
	C293.144684,393.407471 292.192596,393.714661 290.823914,394.000305 
z"/>
<path fill="#B1CBFE" opacity="1.000000" stroke="none" 
	d="
M286.375244,394.926514 
	C285.999115,394.847504 286.030304,394.364868 286.048889,394.123657 
	C286.865326,393.660492 287.663177,393.438538 288.811096,393.635620 
	C289.123444,394.341248 289.085724,394.627869 289.048004,394.914490 
	C288.282440,394.944824 287.516907,394.975159 286.375244,394.926514 
z"/>
<path fill="#AEF7FE" opacity="1.000000" stroke="none" 
	d="
M57.327652,245.658783 
	C57.644997,245.828217 58.069214,246.173996 58.602501,246.693024 
	C58.285892,246.522568 57.860210,246.178833 57.327652,245.658783 
z"/>
<path fill="#B0F7FF" opacity="1.000000" stroke="none" 
	d="
M47.175171,204.655151 
	C47.157513,205.142471 46.862160,205.662903 46.237614,206.067123 
	C46.238106,205.530014 46.567791,205.109131 47.175171,204.655151 
z"/>
<path fill="#B0F7FF" opacity="1.000000" stroke="none" 
	d="
M48.680557,202.980072 
	C48.735371,203.466156 48.521072,204.024033 47.964417,204.516968 
	C47.885185,203.985321 48.148315,203.518600 48.680557,202.980072 
z"/>
<path fill="#B3F4FF" opacity="1.000000" stroke="none" 
	d="
M363.988770,174.638092 
	C363.438629,174.854630 362.771393,174.758118 362.026367,174.275909 
	C362.589600,174.035172 363.230652,174.180115 363.988770,174.638092 
z"/>
<path fill="#B0F7FF" opacity="1.000000" stroke="none" 
	d="
M62.876205,189.234940 
	C62.743832,189.971207 62.223408,190.545944 61.303265,191.040253 
	C61.431747,190.331024 61.959949,189.702209 62.876205,189.234940 
z"/>
<path fill="#B0F7FF" opacity="1.000000" stroke="none" 
	d="
M56.892624,195.232346 
	C56.755337,195.963959 56.227745,196.531815 55.300575,197.031738 
	C55.434769,196.332062 55.968544,195.700333 56.892624,195.232346 
z"/>
<path fill="#B3F8FE" opacity="1.000000" stroke="none" 
	d="
M376.299927,188.271362 
	C376.008545,188.014862 376.016724,187.786316 376.039551,187.215088 
	C376.350586,187.052383 376.646942,187.232330 377.008850,187.671036 
	C376.916077,188.052979 376.757751,188.176147 376.299927,188.271362 
z"/>
<path fill="#ADF5FE" opacity="1.000000" stroke="none" 
	d="
M162.006958,351.353943 
	C162.274673,351.072723 162.654266,351.096222 163.182983,351.443329 
	C162.927689,351.730865 162.523254,351.694763 162.006958,351.353943 
z"/>
<path fill="#B2F6FE" opacity="1.000000" stroke="none" 
	d="
M437.296997,363.032471 
	C437.167023,362.729126 437.305298,362.351868 437.774689,362.001465 
	C437.925629,362.338379 437.745453,362.648438 437.296997,363.032471 
z"/>
<path fill="#B3F8FE" opacity="1.000000" stroke="none" 
	d="
M382.031616,192.701813 
	C381.722748,192.834839 381.340820,192.699799 380.994141,192.229980 
	C381.339111,192.074722 381.648834,192.254242 382.031616,192.701813 
z"/>
<path fill="#B2F6FE" opacity="1.000000" stroke="none" 
	d="
M421.295959,379.033142 
	C421.166534,378.728149 421.305481,378.349274 421.774963,377.999817 
	C421.925140,378.339233 421.744751,378.649261 421.295959,379.033142 
z"/>
<path fill="#B0F7FF" opacity="1.000000" stroke="none" 
	d="
M59.696156,191.969070 
	C59.833488,192.283432 59.703209,192.667847 59.235130,193.009033 
	C59.074398,192.656906 59.251469,192.348007 59.696156,191.969070 
z"/>
<path fill="#B0F7FF" opacity="1.000000" stroke="none" 
	d="
M60.697945,190.968079 
	C60.835583,191.284866 60.705677,191.671539 60.237427,192.010925 
	C60.076191,191.655075 60.253292,191.346527 60.697945,190.968079 
z"/>
<path fill="#ADC7FD" opacity="1.000000" stroke="none" 
	d="
M289.372528,394.912231 
	C289.085724,394.627869 289.123444,394.341248 289.227600,393.625244 
	C289.570221,393.202606 289.846436,393.209320 290.335571,393.571625 
	C290.264679,394.254791 289.980865,394.582397 289.372528,394.912231 
z"/>
<path fill="#B3F4FF" opacity="1.000000" stroke="none" 
	d="
M365.040710,175.709961 
	C364.687958,175.865570 364.250458,175.752151 363.916138,175.254730 
	C364.331543,175.060806 364.643738,175.250870 365.040710,175.709961 
z"/>
<path fill="#B2F6FE" opacity="1.000000" stroke="none" 
	d="
M453.296692,347.033203 
	C453.167511,346.730316 453.306824,346.353546 453.776306,346.002747 
	C453.926025,346.338959 453.745575,346.649139 453.296692,347.033203 
z"/>
<path fill="#9CF3FD" opacity="1.000000" stroke="none" 
	d="
M145.929871,145.216949 
	C145.567581,145.251801 145.254211,144.925262 144.992081,144.254181 
	C145.355148,144.224945 145.666992,144.540253 145.929871,145.216949 
z"/>
<path fill="#ADF5FE" opacity="1.000000" stroke="none" 
	d="
M160.959656,350.289337 
	C161.316360,350.135498 161.756332,350.250305 162.086487,350.745300 
	C161.665405,350.936340 161.354156,350.747192 160.959656,350.289337 
z"/>
<path fill="#B0F7FF" opacity="1.000000" stroke="none" 
	d="
M58.700432,192.969086 
	C58.832474,193.276108 58.697140,193.655991 58.228882,194.002319 
	C58.074989,193.659821 58.254025,193.350891 58.700432,192.969086 
z"/>
<path fill="#B0F7FF" opacity="1.000000" stroke="none" 
	d="
M41.700077,209.969360 
	C41.833115,210.275085 41.698883,210.654129 41.230667,211.001678 
	C41.075397,210.661011 41.254101,210.351852 41.700077,209.969360 
z"/>
<path fill="#B0F7FF" opacity="1.000000" stroke="none" 
	d="
M57.637192,194.023178 
	C57.953114,194.230087 57.921314,194.570496 57.595184,195.333435 
	C57.297062,195.222855 57.293266,194.689774 57.637192,194.023178 
z"/>
<path fill="#B0F8FE" opacity="1.000000" stroke="none" 
	d="
M120.715576,308.795013 
	C121.000229,309.066284 120.990776,309.278198 120.966599,309.807861 
	C120.652763,309.946259 120.353653,309.766846 119.987839,309.327179 
	C120.087914,308.956482 120.254692,308.846069 120.715576,308.795013 
z"/>
<path fill="#B0F7FF" opacity="1.000000" stroke="none" 
	d="
M54.703568,196.968933 
	C54.832634,197.270844 54.693893,197.646881 54.224915,197.997208 
	C54.075039,197.662018 54.255402,197.352539 54.703568,196.968933 
z"/>
<path fill="#B3F8FE" opacity="1.000000" stroke="none" 
	d="
M387.032257,197.703522 
	C386.731018,197.832153 386.354767,197.692764 386.002991,197.222900 
	C386.337402,197.073456 386.647339,197.254486 387.032257,197.703522 
z"/>
<path fill="#B0F7FF" opacity="1.000000" stroke="none" 
	d="
M53.680771,197.987473 
	C53.756138,198.282974 53.526257,198.677368 52.918968,199.066803 
	C52.819542,198.736679 53.097530,198.411530 53.680771,197.987473 
z"/>
<path fill="#B0F7FF" opacity="1.000000" stroke="none" 
	d="
M50.812523,200.743439 
	C50.923843,201.003067 50.785885,201.464844 50.269066,201.954483 
	C50.114552,201.636749 50.338902,201.291183 50.812523,200.743439 
z"/>
<path fill="#B0F7FF" opacity="1.000000" stroke="none" 
	d="
M49.699303,201.968811 
	C49.833237,202.277756 49.699551,202.658447 49.231197,203.003418 
	C49.074913,202.658646 49.253296,202.349594 49.699303,201.968811 
z"/>
<path fill="#B0F7FF" opacity="1.000000" stroke="none" 
	d="
M45.702435,205.969406 
	C45.833851,206.275452 45.697987,206.654694 45.229340,207.001343 
	C45.076088,206.660049 45.255619,206.351318 45.702435,205.969406 
z"/>
<path fill="#B0F7FF" opacity="1.000000" stroke="none" 
	d="
M44.699413,206.968292 
	C44.835838,207.285019 44.704937,207.672363 44.236393,208.011749 
	C44.076534,207.655518 44.254311,207.347214 44.699413,206.968292 
z"/>
<path fill="#22DEFE" opacity="1.000000" stroke="none" 
	d="
M62.253052,251.698517 
	C62.277386,251.718491 62.350437,251.696136 62.336563,251.659042 
	C62.322685,251.621948 62.246716,251.590805 62.208801,251.604446 
	C62.170887,251.618088 62.228722,251.678543 62.253052,251.698517 
z"/>
<path fill="#B0F7FF" opacity="1.000000" stroke="none" 
	d="
M43.696617,207.969696 
	C43.832256,208.277771 43.700241,208.657043 43.231956,209.002548 
	C43.073444,208.659485 43.251198,208.350204 43.696617,207.969696 
z"/>
<path fill="#B0F7FF" opacity="1.000000" stroke="none" 
	d="
M42.702751,208.968124 
	C42.833244,209.276199 42.696232,209.657501 42.227474,210.003311 
	C42.075569,209.658997 42.255405,209.350174 42.702751,208.968124 
z"/>
<path fill="#ADC7FD" opacity="1.000000" stroke="none" 
	d="
M293.928864,392.700989 
	C293.063782,392.940247 292.228912,392.990936 290.973816,393.055176 
	C291.526978,392.737457 292.500397,392.406158 293.737732,392.103821 
	C294.001587,392.132812 293.959106,392.512390 293.928864,392.700989 
z"/>
<path fill="#22DEFE" opacity="1.000000" stroke="none" 
	d="
M152.576828,338.384766 
	C152.325516,338.456299 152.010193,338.230316 151.620209,337.718384 
	C151.867950,337.650726 152.190369,337.869019 152.576828,338.384766 
z"/>
</svg>